<mxfile host="app.diagrams.net" modified="2022-07-18T13:27:50.636Z" agent="5.0 (X11)" etag="-usGUYolgiW0AkgjckPb" version="20.1.1" type="github">
  <diagram id="xV47j8g8GYqFTZKEBHm5" name="Page-1">
    <mxGraphModel dx="1586" dy="933" grid="1" gridSize="10" guides="1" tooltips="1" connect="1" arrows="1" fold="1" page="1" pageScale="1" pageWidth="1200" pageHeight="600" math="0" shadow="0">
      <root>
        <mxCell id="0" />
        <mxCell id="1" parent="0" />
        <mxCell id="obsWY3uiOEglLsuBD1IC-1" value="Страницы" style="rounded=1;whiteSpace=wrap;html=1;fillColor=#d5e8d4;strokeColor=#82b366;" parent="1" vertex="1">
          <mxGeometry x="120" y="120" width="120" height="40" as="geometry" />
        </mxCell>
        <mxCell id="obsWY3uiOEglLsuBD1IC-2" value="" style="endArrow=none;html=1;rounded=0;entryX=0.5;entryY=1;entryDx=0;entryDy=0;" parent="1" target="obsWY3uiOEglLsuBD1IC-1" edge="1">
          <mxGeometry width="50" height="50" relative="1" as="geometry">
            <mxPoint x="180" y="200" as="sourcePoint" />
            <mxPoint x="260" y="230" as="targetPoint" />
          </mxGeometry>
        </mxCell>
        <mxCell id="obsWY3uiOEglLsuBD1IC-3" value="Авторизация" style="rounded=1;whiteSpace=wrap;html=1;" parent="1" vertex="1">
          <mxGeometry x="120" y="200" width="120" height="40" as="geometry" />
        </mxCell>
        <mxCell id="obsWY3uiOEglLsuBD1IC-4" value="" style="endArrow=none;html=1;rounded=0;entryX=0.5;entryY=1;entryDx=0;entryDy=0;" parent="1" edge="1">
          <mxGeometry width="50" height="50" relative="1" as="geometry">
            <mxPoint x="180" y="280" as="sourcePoint" />
            <mxPoint x="180" y="240" as="targetPoint" />
          </mxGeometry>
        </mxCell>
        <mxCell id="obsWY3uiOEglLsuBD1IC-5" value="Лента идей" style="rounded=1;whiteSpace=wrap;html=1;" parent="1" vertex="1">
          <mxGeometry x="120" y="280" width="120" height="40" as="geometry" />
        </mxCell>
        <mxCell id="obsWY3uiOEglLsuBD1IC-8" value="" style="endArrow=none;html=1;rounded=0;entryX=0.5;entryY=1;entryDx=0;entryDy=0;exitX=0.97;exitY=0.054;exitDx=0;exitDy=0;exitPerimeter=0;" parent="1" source="obsWY3uiOEglLsuBD1IC-13" edge="1">
          <mxGeometry width="50" height="50" relative="1" as="geometry">
            <mxPoint x="120" y="360" as="sourcePoint" />
            <mxPoint x="160" y="320" as="targetPoint" />
          </mxGeometry>
        </mxCell>
        <mxCell id="obsWY3uiOEglLsuBD1IC-12" value="" style="endArrow=none;html=1;rounded=0;exitX=0.024;exitY=0.061;exitDx=0;exitDy=0;exitPerimeter=0;" parent="1" source="obsWY3uiOEglLsuBD1IC-14" edge="1">
          <mxGeometry width="50" height="50" relative="1" as="geometry">
            <mxPoint x="240" y="360" as="sourcePoint" />
            <mxPoint x="200" y="320" as="targetPoint" />
          </mxGeometry>
        </mxCell>
        <mxCell id="obsWY3uiOEglLsuBD1IC-13" value="Создание идеи" style="rounded=1;whiteSpace=wrap;html=1;" parent="1" vertex="1">
          <mxGeometry x="40" y="360" width="80" height="40" as="geometry" />
        </mxCell>
        <mxCell id="obsWY3uiOEglLsuBD1IC-14" value="Просмотр идеи" style="rounded=1;whiteSpace=wrap;html=1;" parent="1" vertex="1">
          <mxGeometry x="240" y="360" width="80" height="40" as="geometry" />
        </mxCell>
        <mxCell id="obsWY3uiOEglLsuBD1IC-21" value="" style="endArrow=none;html=1;rounded=0;entryX=0.5;entryY=1;entryDx=0;entryDy=0;" parent="1" edge="1">
          <mxGeometry width="50" height="50" relative="1" as="geometry">
            <mxPoint x="179.86" y="360" as="sourcePoint" />
            <mxPoint x="179.86" y="320" as="targetPoint" />
          </mxGeometry>
        </mxCell>
        <mxCell id="obsWY3uiOEglLsuBD1IC-23" value="Мои идеи" style="rounded=1;whiteSpace=wrap;html=1;" parent="1" vertex="1">
          <mxGeometry x="140" y="360" width="80" height="40" as="geometry" />
        </mxCell>
        <mxCell id="K5tYvKwMO90GEfp7VFm9-2" value="" style="endArrow=none;html=1;rounded=0;entryX=0.5;entryY=1;entryDx=0;entryDy=0;" edge="1" parent="1">
          <mxGeometry width="50" height="50" relative="1" as="geometry">
            <mxPoint x="179.9" y="440" as="sourcePoint" />
            <mxPoint x="179.9" y="400" as="targetPoint" />
          </mxGeometry>
        </mxCell>
        <mxCell id="K5tYvKwMO90GEfp7VFm9-3" value="Редактор идеи" style="rounded=1;whiteSpace=wrap;html=1;" vertex="1" parent="1">
          <mxGeometry x="140" y="440" width="80" height="40" as="geometry" />
        </mxCell>
        <mxCell id="K5tYvKwMO90GEfp7VFm9-4" value="Пользователи" style="rounded=1;whiteSpace=wrap;html=1;fillColor=#d5e8d4;strokeColor=#82b366;" vertex="1" parent="1">
          <mxGeometry x="360" y="120" width="120" height="40" as="geometry" />
        </mxCell>
        <mxCell id="K5tYvKwMO90GEfp7VFm9-5" value="Сотрудники" style="rounded=1;whiteSpace=wrap;html=1;" vertex="1" parent="1">
          <mxGeometry x="300" y="200" width="100" height="40" as="geometry" />
        </mxCell>
        <mxCell id="K5tYvKwMO90GEfp7VFm9-6" value="Руководители" style="rounded=1;whiteSpace=wrap;html=1;" vertex="1" parent="1">
          <mxGeometry x="440" y="200" width="100" height="40" as="geometry" />
        </mxCell>
        <mxCell id="K5tYvKwMO90GEfp7VFm9-7" value="" style="endArrow=none;html=1;rounded=0;exitX=0.598;exitY=-0.004;exitDx=0;exitDy=0;exitPerimeter=0;entryX=0.332;entryY=1;entryDx=0;entryDy=0;entryPerimeter=0;" edge="1" parent="1" source="K5tYvKwMO90GEfp7VFm9-5" target="K5tYvKwMO90GEfp7VFm9-4">
          <mxGeometry width="50" height="50" relative="1" as="geometry">
            <mxPoint x="350" y="210" as="sourcePoint" />
            <mxPoint x="400" y="170" as="targetPoint" />
          </mxGeometry>
        </mxCell>
        <mxCell id="K5tYvKwMO90GEfp7VFm9-8" value="" style="endArrow=none;html=1;rounded=0;entryX=0.669;entryY=1.002;entryDx=0;entryDy=0;entryPerimeter=0;exitX=0.406;exitY=0.007;exitDx=0;exitDy=0;exitPerimeter=0;" edge="1" parent="1" source="K5tYvKwMO90GEfp7VFm9-6" target="K5tYvKwMO90GEfp7VFm9-4">
          <mxGeometry width="50" height="50" relative="1" as="geometry">
            <mxPoint x="410" y="220" as="sourcePoint" />
            <mxPoint x="460" y="170" as="targetPoint" />
          </mxGeometry>
        </mxCell>
        <mxCell id="K5tYvKwMO90GEfp7VFm9-19" value="Действия" style="rounded=1;whiteSpace=wrap;html=1;fillColor=#d5e8d4;strokeColor=#82b366;" vertex="1" parent="1">
          <mxGeometry x="770" y="120" width="120" height="40" as="geometry" />
        </mxCell>
        <mxCell id="K5tYvKwMO90GEfp7VFm9-20" value="Все" style="rounded=1;whiteSpace=wrap;html=1;fillColor=#fff2cc;strokeColor=#d6b656;" vertex="1" parent="1">
          <mxGeometry x="650" y="200" width="100" height="40" as="geometry" />
        </mxCell>
        <mxCell id="K5tYvKwMO90GEfp7VFm9-21" value="Руководители" style="rounded=1;whiteSpace=wrap;html=1;fillColor=#fff2cc;strokeColor=#d6b656;" vertex="1" parent="1">
          <mxGeometry x="910" y="200" width="100" height="40" as="geometry" />
        </mxCell>
        <mxCell id="K5tYvKwMO90GEfp7VFm9-22" value="" style="endArrow=none;html=1;rounded=0;exitX=0.799;exitY=0.002;exitDx=0;exitDy=0;exitPerimeter=0;entryX=0.016;entryY=0.956;entryDx=0;entryDy=0;entryPerimeter=0;" edge="1" parent="1" source="K5tYvKwMO90GEfp7VFm9-20" target="K5tYvKwMO90GEfp7VFm9-19">
          <mxGeometry width="50" height="50" relative="1" as="geometry">
            <mxPoint x="720" y="210" as="sourcePoint" />
            <mxPoint x="770" y="170" as="targetPoint" />
          </mxGeometry>
        </mxCell>
        <mxCell id="K5tYvKwMO90GEfp7VFm9-23" value="" style="endArrow=none;html=1;rounded=0;entryX=0.981;entryY=0.962;entryDx=0;entryDy=0;entryPerimeter=0;exitX=0.204;exitY=0.004;exitDx=0;exitDy=0;exitPerimeter=0;" edge="1" parent="1" source="K5tYvKwMO90GEfp7VFm9-21" target="K5tYvKwMO90GEfp7VFm9-19">
          <mxGeometry width="50" height="50" relative="1" as="geometry">
            <mxPoint x="780" y="220" as="sourcePoint" />
            <mxPoint x="830" y="170" as="targetPoint" />
          </mxGeometry>
        </mxCell>
        <mxCell id="K5tYvKwMO90GEfp7VFm9-27" value="Предложить идею" style="rounded=1;whiteSpace=wrap;html=1;" vertex="1" parent="1">
          <mxGeometry x="540" y="280" width="100" height="40" as="geometry" />
        </mxCell>
        <mxCell id="K5tYvKwMO90GEfp7VFm9-31" value="Оставить комментарий" style="rounded=1;whiteSpace=wrap;html=1;" vertex="1" parent="1">
          <mxGeometry x="720" y="340" width="100" height="40" as="geometry" />
        </mxCell>
        <mxCell id="K5tYvKwMO90GEfp7VFm9-32" value="Поставить лайк" style="rounded=1;whiteSpace=wrap;html=1;" vertex="1" parent="1">
          <mxGeometry x="760" y="280" width="100" height="40" as="geometry" />
        </mxCell>
        <mxCell id="K5tYvKwMO90GEfp7VFm9-33" value="Авторизация" style="rounded=1;whiteSpace=wrap;html=1;" vertex="1" parent="1">
          <mxGeometry x="650" y="400" width="100" height="40" as="geometry" />
        </mxCell>
        <mxCell id="K5tYvKwMO90GEfp7VFm9-34" value="Редактировать свою идею" style="rounded=1;whiteSpace=wrap;html=1;" vertex="1" parent="1">
          <mxGeometry x="580" y="340" width="100" height="40" as="geometry" />
        </mxCell>
        <mxCell id="K5tYvKwMO90GEfp7VFm9-35" value="" style="endArrow=none;html=1;rounded=0;strokeColor=#000000;entryX=0.096;entryY=1.001;entryDx=0;entryDy=0;entryPerimeter=0;exitX=0.5;exitY=0;exitDx=0;exitDy=0;" edge="1" parent="1" source="K5tYvKwMO90GEfp7VFm9-27" target="K5tYvKwMO90GEfp7VFm9-20">
          <mxGeometry width="50" height="50" relative="1" as="geometry">
            <mxPoint x="690" y="300" as="sourcePoint" />
            <mxPoint x="730" y="260" as="targetPoint" />
          </mxGeometry>
        </mxCell>
        <mxCell id="K5tYvKwMO90GEfp7VFm9-37" value="" style="endArrow=none;html=1;rounded=0;strokeColor=#000000;entryX=0.893;entryY=1.001;entryDx=0;entryDy=0;entryPerimeter=0;exitX=0.5;exitY=0;exitDx=0;exitDy=0;" edge="1" parent="1" source="K5tYvKwMO90GEfp7VFm9-32" target="K5tYvKwMO90GEfp7VFm9-20">
          <mxGeometry width="50" height="50" relative="1" as="geometry">
            <mxPoint x="640.0000000000001" y="290" as="sourcePoint" />
            <mxPoint x="680.0000000000001" y="250" as="targetPoint" />
          </mxGeometry>
        </mxCell>
        <mxCell id="K5tYvKwMO90GEfp7VFm9-38" value="" style="endArrow=none;html=1;rounded=0;strokeColor=#000000;entryX=0.5;entryY=1;entryDx=0;entryDy=0;exitX=0.5;exitY=0;exitDx=0;exitDy=0;" edge="1" parent="1" source="K5tYvKwMO90GEfp7VFm9-33" target="K5tYvKwMO90GEfp7VFm9-20">
          <mxGeometry width="50" height="50" relative="1" as="geometry">
            <mxPoint x="670" y="325" as="sourcePoint" />
            <mxPoint x="720" y="275" as="targetPoint" />
          </mxGeometry>
        </mxCell>
        <mxCell id="K5tYvKwMO90GEfp7VFm9-39" value="" style="endArrow=none;html=1;rounded=0;strokeColor=#000000;entryX=0.301;entryY=1.001;entryDx=0;entryDy=0;entryPerimeter=0;exitX=0.75;exitY=0;exitDx=0;exitDy=0;" edge="1" parent="1" source="K5tYvKwMO90GEfp7VFm9-34" target="K5tYvKwMO90GEfp7VFm9-20">
          <mxGeometry width="50" height="50" relative="1" as="geometry">
            <mxPoint x="640" y="310" as="sourcePoint" />
            <mxPoint x="690" y="260" as="targetPoint" />
          </mxGeometry>
        </mxCell>
        <mxCell id="K5tYvKwMO90GEfp7VFm9-40" value="" style="endArrow=none;html=1;rounded=0;strokeColor=#000000;entryX=0.7;entryY=1.016;entryDx=0;entryDy=0;entryPerimeter=0;exitX=0.25;exitY=0;exitDx=0;exitDy=0;" edge="1" parent="1" source="K5tYvKwMO90GEfp7VFm9-31" target="K5tYvKwMO90GEfp7VFm9-20">
          <mxGeometry width="50" height="50" relative="1" as="geometry">
            <mxPoint x="720" y="320" as="sourcePoint" />
            <mxPoint x="770" y="270" as="targetPoint" />
          </mxGeometry>
        </mxCell>
        <mxCell id="K5tYvKwMO90GEfp7VFm9-41" value="" style="endArrow=none;html=1;rounded=0;strokeColor=#000000;" edge="1" parent="1">
          <mxGeometry width="50" height="50" relative="1" as="geometry">
            <mxPoint x="959.7399999999999" y="280" as="sourcePoint" />
            <mxPoint x="959.7399999999999" y="240" as="targetPoint" />
          </mxGeometry>
        </mxCell>
        <mxCell id="K5tYvKwMO90GEfp7VFm9-42" value="Отклонить идею" style="rounded=1;whiteSpace=wrap;html=1;" vertex="1" parent="1">
          <mxGeometry x="910" y="280" width="100" height="40" as="geometry" />
        </mxCell>
        <mxCell id="K5tYvKwMO90GEfp7VFm9-43" value="Поддержать идею" style="rounded=1;whiteSpace=wrap;html=1;" vertex="1" parent="1">
          <mxGeometry x="1060" y="200" width="100" height="40" as="geometry" />
        </mxCell>
        <mxCell id="K5tYvKwMO90GEfp7VFm9-44" value="" style="endArrow=none;html=1;rounded=0;strokeColor=#000000;exitX=0;exitY=0.5;exitDx=0;exitDy=0;entryX=1;entryY=0.5;entryDx=0;entryDy=0;" edge="1" parent="1" source="K5tYvKwMO90GEfp7VFm9-43" target="K5tYvKwMO90GEfp7VFm9-21">
          <mxGeometry width="50" height="50" relative="1" as="geometry">
            <mxPoint x="1010" y="280" as="sourcePoint" />
            <mxPoint x="1010" y="240" as="targetPoint" />
          </mxGeometry>
        </mxCell>
        <mxCell id="K5tYvKwMO90GEfp7VFm9-45" value="Присвоить статус идее" style="rounded=1;whiteSpace=wrap;html=1;" vertex="1" parent="1">
          <mxGeometry x="1030" y="260" width="100" height="40" as="geometry" />
        </mxCell>
        <mxCell id="K5tYvKwMO90GEfp7VFm9-46" value="" style="endArrow=none;html=1;rounded=0;strokeColor=#000000;exitX=0.99;exitY=0.931;exitDx=0;exitDy=0;exitPerimeter=0;entryX=0.024;entryY=0.053;entryDx=0;entryDy=0;entryPerimeter=0;" edge="1" parent="1" source="K5tYvKwMO90GEfp7VFm9-21" target="K5tYvKwMO90GEfp7VFm9-45">
          <mxGeometry width="50" height="50" relative="1" as="geometry">
            <mxPoint x="880" y="190" as="sourcePoint" />
            <mxPoint x="930" y="140" as="targetPoint" />
          </mxGeometry>
        </mxCell>
      </root>
    </mxGraphModel>
  </diagram>
</mxfile>
